<svg xmlns="http://www.w3.org/2000/svg" viewBox="0 0 512 512" role="img" aria-labelledby="title desc">
  <title id="title">NexoClx AP</title>
  <desc id="desc">Logo sanitario original con cruz clínica y nodo de conexión.</desc>
  <rect width="512" height="512" rx="104" fill="#f6fbfa"/>
  <path d="M112 256c0-79.5 64.5-144 144-144s144 64.5 144 144-64.5 144-144 144-144-64.5-144-144Z" fill="#e6f4f1"/>
  <path d="M256 86c93.9 0 170 76.1 170 170s-76.1 170-170 170S86 349.9 86 256 162.1 86 256 86Zm0 36c-74 0-134 60-134 134s60 134 134 134 134-60 134-134-60-134-134-134Z" fill="#0f766e"/>
  <path d="M236 156h40c9.9 0 18 8.1 18 18v44h44c9.9 0 18 8.1 18 18v40c0 9.9-8.1 18-18 18h-44v44c0 9.9-8.1 18-18 18h-40c-9.9 0-18-8.1-18-18v-44h-44c-9.9 0-18-8.1-18-18v-40c0-9.9 8.1-18 18-18h44v-44c0-9.9 8.1-18 18-18Z" fill="#135f86"/>
  <circle cx="155" cy="155" r="16" fill="#d99a16"/>
  <circle cx="357" cy="357" r="16" fill="#d99a16"/>
  <path d="M168 168 218 218M294 294l50 50" stroke="#d99a16" stroke-width="14" stroke-linecap="round"/>
</svg>
