<svg xmlns="http://www.w3.org/2000/svg" viewBox="0 0 512 512" role="img" aria-labelledby="title desc">
  <title id="title">NexoClx AP</title>
  <desc id="desc">Icono sanitario simétrico con cruz central blanca y cuatro segmentos verdes redondeados.</desc>
  <defs>
    <filter id="tileShadow" x="-18%" y="-18%" width="136%" height="136%">
      <feDropShadow dx="0" dy="10" stdDeviation="14" flood-color="#0f1720" flood-opacity=".12"/>
    </filter>
    <filter id="markShadow" x="-15%" y="-15%" width="130%" height="130%">
      <feDropShadow dx="0" dy="3" stdDeviation="4" flood-color="#064e3b" flood-opacity=".12"/>
    </filter>
    <linearGradient id="top" x1="256" x2="256" y1="116" y2="236" gradientUnits="userSpaceOnUse">
      <stop offset="0" stop-color="#006b5d"/>
      <stop offset="1" stop-color="#008a75"/>
    </linearGradient>
    <linearGradient id="right" x1="306" x2="412" y1="256" y2="256" gradientUnits="userSpaceOnUse">
      <stop offset="0" stop-color="#00a77d"/>
      <stop offset="1" stop-color="#00785f"/>
    </linearGradient>
    <linearGradient id="bottom" x1="256" x2="256" y1="306" y2="414" gradientUnits="userSpaceOnUse">
      <stop offset="0" stop-color="#71d8b7"/>
      <stop offset="1" stop-color="#0f9b79"/>
    </linearGradient>
    <linearGradient id="left" x1="100" x2="206" y1="256" y2="256" gradientUnits="userSpaceOnUse">
      <stop offset="0" stop-color="#b8ecd7"/>
      <stop offset="1" stop-color="#76d8b8"/>
    </linearGradient>
    <linearGradient id="accent" x1="284" x2="350" y1="330" y2="392" gradientUnits="userSpaceOnUse">
      <stop offset="0" stop-color="#b7dd2e"/>
      <stop offset="1" stop-color="#8ac51e"/>
    </linearGradient>
    <mask id="crossCut">
      <rect width="512" height="512" fill="white"/>
      <path fill="black" d="M226 156h60c11 0 20 9 20 20v50h50c11 0 20 9 20 20v20c0 11-9 20-20 20h-50v50c0 11-9 20-20 20h-60c-11 0-20-9-20-20v-50h-50c-11 0-20-9-20-20v-20c0-11 9-20 20-20h50v-50c0-11 9-20 20-20Z"/>
    </mask>
  </defs>

  <rect x="16" y="16" width="480" height="480" rx="108" fill="#fbfdfc" filter="url(#tileShadow)"/>
  <rect x="18" y="18" width="476" height="476" rx="106" fill="#ffffff" stroke="#edf3f1" stroke-width="2"/>

  <g mask="url(#crossCut)" filter="url(#markShadow)">
    <path fill="url(#top)" d="M184 224v-44c0-39.8 32.2-72 72-72s72 32.2 72 72v44h-56v-44c0-8.8-7.2-16-16-16s-16 7.2-16 16v44h-56Z"/>
    <path fill="url(#right)" d="M288 184h44c39.8 0 72 32.2 72 72s-32.2 72-72 72h-44v-56h44c8.8 0 16-7.2 16-16s-7.2-16-16-16h-44v-56Z"/>
    <path fill="url(#bottom)" d="M184 288h56v44c0 8.8 7.2 16 16 16s16-7.2 16-16v-44h56v44c0 39.8-32.2 72-72 72s-72-32.2-72-72v-44Z"/>
    <path fill="url(#left)" d="M108 256c0-39.8 32.2-72 72-72h44v56h-44c-8.8 0-16 7.2-16 16s7.2 16 16 16h44v56h-44c-39.8 0-72-32.2-72-72Z"/>
    <path fill="url(#accent)" d="M288 328v-40h40v44c0 21.9-9.8 41.5-25.2 54.7-19.4-7-35.4-22-43.7-40.7 16.7-1.6 28.9-9 28.9-18Z" opacity=".95"/>
  </g>
</svg>
