<svg xmlns="http://www.w3.org/2000/svg" viewBox="0 0 512 512" role="img" aria-labelledby="title desc">
  <title id="title">NexoClx AP</title>
  <desc id="desc">Icono sanitario de cruz blanca formada por cuatro eslabones verdes.</desc>
  <defs>
    <filter id="tileShadow" x="-20%" y="-20%" width="140%" height="140%">
      <feDropShadow dx="0" dy="14" stdDeviation="16" flood-color="#0f1720" flood-opacity=".16"/>
    </filter>
    <filter id="softInner" x="-20%" y="-20%" width="140%" height="140%">
      <feDropShadow dx="0" dy="2" stdDeviation="3" flood-color="#064e3b" flood-opacity=".15"/>
    </filter>
    <linearGradient id="topGradient" x1="216" x2="312" y1="95" y2="240" gradientUnits="userSpaceOnUse">
      <stop offset="0" stop-color="#006b5d"/>
      <stop offset="1" stop-color="#009979"/>
    </linearGradient>
    <linearGradient id="rightGradient" x1="326" x2="450" y1="210" y2="324" gradientUnits="userSpaceOnUse">
      <stop offset="0" stop-color="#009e79"/>
      <stop offset="1" stop-color="#007b65"/>
    </linearGradient>
    <linearGradient id="bottomGradient" x1="214" x2="300" y1="332" y2="430" gradientUnits="userSpaceOnUse">
      <stop offset="0" stop-color="#63d2ad"/>
      <stop offset="1" stop-color="#0f9b79"/>
    </linearGradient>
    <linearGradient id="leftGradient" x1="94" x2="238" y1="246" y2="284" gradientUnits="userSpaceOnUse">
      <stop offset="0" stop-color="#b4ead4"/>
      <stop offset="1" stop-color="#72d5b6"/>
    </linearGradient>
    <linearGradient id="limeGradient" x1="288" x2="345" y1="333" y2="398" gradientUnits="userSpaceOnUse">
      <stop offset="0" stop-color="#b7dc2a"/>
      <stop offset="1" stop-color="#8ac71b"/>
    </linearGradient>
  </defs>

  <rect x="14" y="14" width="484" height="484" rx="104" fill="#ffffff" filter="url(#tileShadow)"/>
  <rect x="17" y="17" width="478" height="478" rx="101" fill="#ffffff" stroke="#f0f3f2" stroke-width="2"/>

  <g filter="url(#softInner)">
    <path fill="url(#topGradient)" d="M184 171c0-49.7 40.3-90 90-90s90 40.3 90 90v77h-48c-11 0-20-9-20-20v-57c0-12.2-4.8-23.9-13.5-32.5S262.2 125 250 125s-23.9 4.8-32.5 13.5S204 158.8 204 171v29h-20v-29Z"/>
    <path fill="url(#rightGradient)" d="M368 204h44c49.7 0 90 40.3 90 90s-40.3 90-90 90h-77v-48c0-11 9-20 20-20h57c12.2 0 23.9-4.8 32.5-13.5S458 282.2 458 270s-4.8-23.9-13.5-32.5S424.2 224 412 224h-44v-20Z" transform="translate(-56 0)"/>
    <path fill="url(#bottomGradient)" d="M184 312h48c11 0 20 9 20 20v57c0 12.2 4.8 23.9 13.5 32.5S285.8 435 298 435s23.9-4.8 32.5-13.5S344 401.2 344 389v-29h20v29c0 49.7-40.3 90-90 90s-90-40.3-90-90v-77Z" transform="translate(0 -40)"/>
    <path fill="url(#leftGradient)" d="M100 294c0-49.7 40.3-90 90-90h77v48c0 11-9 20-20 20h-57c-12.2 0-23.9 4.8-32.5 13.5S144 305.8 144 318s4.8 23.9 13.5 32.5S177.8 364 190 364h44v20h-44c-49.7 0-90-40.3-90-90Z" transform="translate(0 -24)"/>
    <path fill="url(#limeGradient)" d="M296 331h48v57c0 12.7-2.7 24.8-7.5 35.7-24.4-.8-47-10.5-64.1-26.1 14.7-14.8 23.6-35.1 23.6-57.6v-9Z"/>
  </g>
</svg>
